<svg xmlns="http://www.w3.org/2000/svg" viewBox="0 0 1822.99 557.75"><defs><style>.cls-1,.cls-4{fill:#3caa50;}.cls-1{stroke:#ff6e00;stroke-miterlimit:10;stroke-width:6px;}.cls-2{fill:#fff;}.cls-3{fill:#ff6e00;}.cls-5{fill:#282828;}</style></defs><title>Espoir_Logo_Green_BG_Revised</title><g id="text"><rect class="cls-1" x="1486.21" y="17.39" width="53.22" height="169.32"/><path class="cls-1" d="M671,68.59c-31.69,18.94-42.92,41.2-42.92,68.49v26.58h97c93.6,0,61.89-.78,101.15,0-20.3,20.3-41.87,18.84-113.45,20.28H628.1v43.2H723c93.6-1.5,105.58-7.82,121.92-19.38,23.6-16.7,37.68-34.74,37.68-64.68v-23H698.84c9.59-12.44,38.58-19.26,110-19.32h73.74V57.22H794C706.88,57.22,687.66,58.64,671,68.59Z" transform="translate(-34.92 -39.83)"/><path class="cls-1" d="M1114.82,100.78v13.5c-.61,15.85-6.6,25.2-71.1,25.2H984.2V183h65.58c70.5,0,81-.45,103.09-24.15,10.68-11.4,14.63-20,16.13-58.05V57.22H911.66V347.44h53.22V100.78Z" transform="translate(-34.92 -39.83)"/><path class="cls-1" d="M341,88.54c-12.06,6-27.06,12.6-33.42,14.58-10.5,3.24-11.34,2.34-9.18-9.06,2.76-14.16-.36-15.12-25.26-7.44-9.3,2.82-44.58,5.58-78.36,6.06-37.5.48-63.54,2.94-66.78,6.18-4,4,2.1,5.28,22.74,4.86,19.74-.36,35.82,2.82,54.18,10.74,22,9.6,31,10.86,58,8.34,36.84-3.42,57.72,4,27.3,9.72-11.7,2.16-36.18.24-66.42-5.34-46.08-8.46-49.5-8.46-93.9-.06-30.06,5.64-54.54,7.56-70.38,5.46-15.36-2-23.16-1.5-21.36,1.5,3.9,6.24,48.9,11.88,99.12,12.3,28.56.24,41.34,2.16,42.78,6.54,1.62,4.8-8.1,5.94-43.14,5.1-24.84-.6-50.64.9-57.3,3.36-10.38,3.9-8,4.92,17,7.68,16,1.74,43.56,6,61.38,9.48,30.12,5.88,34.8,5.58,67.74-4.68,36.72-11.46,71.82-12.3,75.24-1.8,3,9.06-19.92,15.78-53.88,15.78-32.64,0-83.16,7.92-94.86,14.88-4.5,2.7,5.7,3.36,26.58,1.8,18.66-1.38,44.76-.72,58.08,1.5,16.2,2.7,34.56,1.86,55.62-2.46,17.28-3.54,36.84-5.7,43.5-4.74l12.12,1.68-13.62,5.76C327,209.44,310.16,212,297,212c-35.88,0-28.73,10.92,8.76,10.92,76.86,0,92,3.06,164.52,3.6H602.06V183H505.34c-101.94,0-96.72,8.34-96.72-19.32H602.06V121H408.62c11.12-11.16,21.68-17.84,104.16-17.84h89.28v-46H513.38C418.58,57.22,394.64,61.6,341,88.54Z" transform="translate(-34.92 -39.83)"/><path class="cls-1" d="M1854.92,96.76V57.22H1600.7V226.54H1651V100.78H1801.7v16.38c0,10.5-4.93,18.5-15.32,22.32-12.93.67-115.78,0-115.78,0V185h42.74c28.26-1.14,23.21,1.41,42.4,19.44,22.7,21.31,25.62,22,53,22.08h28.8l-20-20.58-23.14-21.74s15.79-5.11,20.92-7.18C1845.85,164.69,1854.92,143.14,1854.92,96.76Z" transform="translate(-34.92 -39.83)"/></g><g id="ball"><circle class="cls-2" cx="1298.16" cy="132.38" r="131.99"/><path class="cls-3" d="M1372.86,99.34a184.66,184.66,0,0,1,27.51,44.53,2,2,0,0,0,3.15.73q4.17-3.66,8.21-7.45a2,2,0,0,0,.27-2.58c-2.43-3.57-4.78-7.32-7-11.29a159.91,159.91,0,0,1-20.51-71.92,2,2,0,0,0-1.23-1.76,133.07,133.07,0,0,0-80.11-6.33,2,2,0,0,0-.34,3.76A191,191,0,0,1,1372.86,99.34Z" transform="translate(-34.92 -39.83)"/><path class="cls-3" d="M1417.16,116.38c1.46,2.59,3,5.08,4.53,7.48a2,2,0,0,0,3.12.28c6.72-7,13.13-14.4,19.16-22a2,2,0,0,0,.11-2.34,133.06,133.06,0,0,0-41.78-40.53,2,2,0,0,0-3,1.92A145.12,145.12,0,0,0,1417.16,116.38Z" transform="translate(-34.92 -39.83)"/><path class="cls-3" d="M1392.66,171.39q-10,7.52-20.59,14.24a2,2,0,0,0-.87,2.06,166.67,166.67,0,0,1,2.93,22.23c2.69,40.46-12.61,72-24.94,90.48a2,2,0,0,0,1.94,3.08,131.36,131.36,0,0,0,47.24-15.9,2,2,0,0,0,1-1.32,221.38,221.38,0,0,0,4.07-72.39,235.94,235.94,0,0,0-7.64-41.43A2,2,0,0,0,1392.66,171.39Z" transform="translate(-34.92 -39.83)"/><path class="cls-3" d="M1465.36,163.39A131.56,131.56,0,0,0,1453.62,117a2,2,0,0,0-3.35-.45q-8.34,10-17.46,19.44a2,2,0,0,0-.1,2.68,146.42,146.42,0,0,0,29.54,26.49A2,2,0,0,0,1465.36,163.39Z" transform="translate(-34.92 -39.83)"/><path class="cls-3" d="M1344.76,185.5c2.93-1.58,5.83-3.23,8.71-4.91a2,2,0,0,0,.91-2.32c-8.44-27.67-24.06-44.78-37.42-54.9-40-30.37-86.34-20.76-97.46-17.82a2,2,0,0,0-1.23.94,132.71,132.71,0,0,0-7.77,115.58,2,2,0,0,0,2,1.24A322.48,322.48,0,0,0,1344.76,185.5Z" transform="translate(-34.92 -39.83)"/><path class="cls-3" d="M1329.11,303.92c10.38-12.34,34.17-46.11,31.05-93.07-.32-4.87-.84-9.51-1.53-13.94a2,2,0,0,0-3-1.44c-1.41.79-2.83,1.58-4.26,2.35a336.61,336.61,0,0,1-130.58,38.9,2,2,0,0,0-1.55,3,132.34,132.34,0,0,0,109.34,64.85A7.63,7.63,0,0,1,1329.11,303.92Z" transform="translate(-34.92 -39.83)"/><path class="cls-3" d="M1325.42,112.21c14.42,10.93,31.17,29,40.91,57.48a2,2,0,0,0,3,1.05q10.05-6.68,19.58-14.11a2,2,0,0,0,.63-2.32,170.87,170.87,0,0,0-27.42-46c-27.17-32.53-60.5-48.25-84.33-55.76a2,2,0,0,0-1.47.1,132.79,132.79,0,0,0-43,32.66,2,2,0,0,0,1.74,3.29C1257.41,86.26,1293.14,87.74,1325.42,112.21Z" transform="translate(-34.92 -39.83)"/><path class="cls-3" d="M1420,148.56q-6,5.58-12.29,10.85a2,2,0,0,0-.6,2.14c7,21.51,9.05,40,10.23,50.8a234.63,234.63,0,0,1-.94,58.43,2,2,0,0,0,3.26,1.8,132.14,132.14,0,0,0,45.41-87.79,2,2,0,0,0-1-1.92,160.77,160.77,0,0,1-41.21-34.14A2,2,0,0,0,1420,148.56Z" transform="translate(-34.92 -39.83)"/></g><g id="net"><path class="cls-4" d="M1449.07,272.92c-6.43,7.53-16.64,20.5-20.66,26.21-2.36,3.35-4.5,6-4.78,6-1.53,0-7.74-11.48-10.05-18.57-1.92-5.93-4.07-15.27-3.68-16.32.16-.6,5.38-.82,21.21-.82h-66.37c15.11,0,27.47.11,27.47.28s-1.6,3.9-3.46,8.29a450.1,450.1,0,0,1-21,41.21,93.54,93.54,0,0,1-5.44,8.57,26,26,0,0,1-3.07-4.29c-7-11-15.28-29.77-19.56-44.61-1.32-4.5-2.42-8.52-2.42-8.84s11.48-.61,27.53-.61h-72.09c15.11,0,27.42.17,27.42.33s-1.81,5.82-4.07,12.53A258.55,258.55,0,0,1,1298.48,323c-2.47,4.56-5.22,9.39-6.1,10.66l-1.59,2.36-3.74-5.66c-5.77-8.73-13.85-25.33-16.92-34.89s-5.83-22.25-5.22-24.56l.38-1.48h-45.43c24.06,0,27.52.11,27.85,1,.55,1.49-1.48,12.37-3.9,20.72-3.74,12.85-9.06,24.28-17.36,37.47-2.36,3.68-4.45,6.7-4.73,6.7-.88,0-7.52-11.76-12.85-22.8A242.38,242.38,0,0,1,1193.48,273l-1.09-3.57h-44.67c23,0,27.47.17,27.47.93,0,1.54-3.3,12.59-5.94,20a247.85,247.85,0,0,1-15.1,32c-1.82,3-3.47,5.44-3.74,5.44-.6,0-7.91-12.42-14.4-24.4-5.16-9.66-11.31-22.69-14.39-30.49l-1.37-3.46h-38.79c16.48,0,21,.17,21.26.88.55,1.37-3.35,16-5.77,21.76a64.9,64.9,0,0,1-4.72,8.9c-2.7,3.95-3.9,4.83-4.45,3.35-.66-1.65-16.82-22.75-22.09-28.9l-5.22-6h-22.8l5.49,5.77c19.29,20.38,38.52,47.41,52.42,73.57,20.49,38.62,32.47,76.15,38,119.38,4,31.21,3,72.25-2.75,104.12-1.54,8.79-1.37,11.1.88,13.19a10.14,10.14,0,0,0,3.41,2.14c4.17,1,16.59-2.86,42.25-13l11.48-4.56,14.94,7.58c19,9.67,32.86,15.33,47.58,19.34,4.07,1.1,6.49.82,15.06-1.65,13.46-3.85,33.29-12.36,48.67-20.88a63.26,63.26,0,0,1,8.41-4.17c.5,0,7.36,2.58,15.33,5.76,26.1,10.33,36.81,13.14,40.77,10.66a8.23,8.23,0,0,0,2.58-3.13c.93-2,.93-2.91-.28-9.94a364.35,364.35,0,0,1-3.07-104.34c8.24-70.71,40.21-139.6,89.66-193.12l6.16-6.7H1452Zm-142.52,69.23c2.42-3.9,6.38-11,8.85-15.71,4.5-8.47,12.25-25.83,12.25-27.37,0-2,1.16-.38,2.64,3.74.88,2.47,4,9.23,6.87,14.94,4.5,8.9,6.81,12.86,14.23,24.18.93,1.37.6,2-5,9.67-3.3,4.5-8.62,11.48-11.87,15.55a76,76,0,0,1-6.31,7.36c-1.6,0-26-23.19-26-24.67A75.16,75.16,0,0,1,1306.55,342.15Zm-14.5,22.14c.22-.05,2.25,1.81,4.45,4.12s7.69,7.53,12.25,11.48,8.24,7.53,8.24,7.81-5,5.76-11.21,12.19-11.64,11.7-12.14,11.7c-1.32,0-25.05-18.68-25.05-19.72,0-.16,2.91-3.63,6.54-7.64s8.84-10.16,11.53-13.62S1291.77,364.29,1292.05,364.29ZM1334,462.36c-2.91,2.53-9.29,7.8-14.12,11.65s-9,7-9.34,7c-1.26,0-35.66-22.42-40-26.1-.33-.28,1.37-2,3.73-3.85s8-6.53,12.47-10.44,8.58-6.92,9-6.75,5.27,3,10.65,6.2,15.06,8.58,21.38,11.76l11.59,5.88Zm13.46,10.22c4.62-4.07,8.85-7.42,9.34-7.42a12.27,12.27,0,0,1,3.24,1l2.36,1-.87,7.8c-.44,4.23-1,13.24-1.32,19.95s-.72,12.19-1,12.19c-.66,0-27.58-13.68-30.71-15.6l-2.2-1.32,6.32-5.11C1336.11,482.25,1342.76,476.65,1347.43,472.58Zm-196.69-1.21-.44-4.45,3-1.15,3.08-1.1,8.51,7.47c4.67,4.12,11.38,9.73,14.84,12.47a51.93,51.93,0,0,1,6.37,5.39c0,.38-16.65,9.34-26.43,14.17-7.69,3.79-7.19,4.12-7.19-4.45C1152.5,493,1151.89,483.9,1150.74,471.37Zm34.23-3.95c-6.16-5.06-11.16-9.4-11.16-9.67s4.73-2.86,10.5-5.72c8.68-4.34,17.74-9.39,31.43-17.63,1.75-1,1.86-1,9.28,5.43,4.12,3.58,9.73,8.3,12.47,10.55s4.73,4.29,4.45,4.56c-2,1.76-17.63,12.31-27.41,18.52-6.49,4.12-12,7.53-12.37,7.47C1201.51,480.93,1199.69,479.5,1185,467.42Zm46.53-43.79c0-.06,2.37-2,5.28-4.18s8.51-6.76,12.36-10.11l7-6,8.68,7.26c4.78,4,10.39,8.51,12.53,10.11l3.79,2.8-3,2.69c-1.7,1.43-7.2,6-12.2,10.16s-9.34,7.53-9.61,7.48C1255.68,443.85,1231.5,424.18,1231.5,423.63Zm-6.7,63c4.23-2.64,13.08-8.57,19.67-13.19l11.92-8.35,2.8,2.09c5.5,4.12,21.49,14.95,29.12,19.78l7.75,4.89-4.29,3.08c-5.6,3.95-19,12.63-27.91,18.13-3.95,2.41-7.3,4.34-7.58,4.28-1.59-.16-39.23-24.56-39.23-25.44C1217.05,491.64,1220.52,489.28,1224.8,486.59Zm10-140.71c7.64-10.49,16.87-27.14,20-36.09.88-2.42,2-3.46,2-1.82a109,109,0,0,0,4.67,10.44,179.63,179.63,0,0,0,16,27.42c1.87,2.58,3.41,4.78,3.41,4.94,0,.72-11,14.34-17.36,21.54-3.79,4.23-7,7.69-7.31,7.64-1.15-.17-16.43-17.86-22.25-25.82l-2.58-3.52Zm-13.79,18.74c.33.33,2.92,3.57,5.77,7.14s7.86,9.51,11.1,13.08a78.22,78.22,0,0,1,5.88,6.92c.06.71-7.91,7.42-16.37,13.9a88.79,88.79,0,0,1-8.24,5.93c-.77,0-7-6.15-15.72-15.32l-8.35-8.79,5.28-4.51c2.91-2.53,8.62-7.8,12.69-11.81C1217.55,366.82,1220.68,364.18,1221.06,364.62Zm-57.63-26.1a205.21,205.21,0,0,0,20.11-38.84c.6-1.59.82-1.37,2.69,3.41,3.52,8.84,13.19,28.13,18.68,37.25,2.91,4.83,5.28,9.06,5.28,9.45,0,1.15-10.72,12-18.41,18.62a75.49,75.49,0,0,1-7.53,6.1c-.66,0-9.89-11.7-17.8-22.53l-6.26-8.57ZM1123.71,360,1121,362.2l-6.1-12.19c-5.16-10.28-12-22.7-15.93-28.85-.88-1.37-.71-1.7,2.14-4.78a53.49,53.49,0,0,0,10-15.16l2.42-5.17,5.27,10.22c6,11.65,9.67,18,16.21,28.68,2.47,4.12,4.4,7.8,4.29,8.24s-3.14,3.9-6.54,7.69A113.6,113.6,0,0,1,1123.71,360Zm11,37.74c-1.27-3.84-3.3-9.72-4.56-13.07l-2.31-6,2.86-2.53c1.64-1.37,6.59-6.21,11.09-10.77s8.3-8,8.46-7.47c.33,1,10.28,14.12,16.1,21.32a45.14,45.14,0,0,1,4,5.38c0,.28-.55.88-1.21,1.38-2.58,2.08-18.73,11.92-24.94,15.27-3.62,1.92-6.76,3.52-6.92,3.52A48.75,48.75,0,0,1,1134.7,397.69Zm7,23.52,7.64-4c8.24-4.4,21.59-12.31,27.91-16.59a30.56,30.56,0,0,1,4.45-2.75,98.29,98.29,0,0,1,7.08,7c3.63,3.9,8.68,9.18,11.27,11.76s4.61,4.83,4.61,4.89c0,1.15-29.12,16.81-40.76,21.92-2.26,1-4.13,1.81-4.24,1.81s-3.79-3.79-8.29-8.4c-7.58-7.8-8.24-8.68-8.9-12Zm19.5,142c-5,1.93-10,3.68-11,4-1.7.44-1.92.33-1.59-.77.44-1.43,1.75-12.8,2-16.92.06-1.43.39-2.58.66-2.58a82.84,82.84,0,0,1,8.24,5.05c4.29,2.75,8.47,5.38,9.35,5.82s1.53,1.1,1.53,1.43S1166.23,561.37,1161.23,563.23ZM1197.71,548A68.17,68.17,0,0,1,1190,551c-.93,0-22.69-13.52-31.53-19.62-3.3-2.25-6-4.45-6-4.83s4.12-2.69,9.12-5.06c8-3.73,27.3-13.79,36.26-18.84l3.08-1.76,5.49,3.85c7.42,5.27,20.22,13.84,27.42,18.35l5.87,3.73-4.28,2.37C1228.76,533,1205.41,544.55,1197.71,548Zm97.14,18.35c-11.15,5.33-24.61,10.77-31.76,12.86-8.13,2.3-6.37,2.41-17.19-1.16-11.26-3.73-37.14-15.22-37-16.48,0-.27,4.23-2.53,9.39-5,10.11-4.83,27.58-13.84,34-17.58l4-2.31,12.19,6.59c12.75,7,33.79,17.42,35.11,17.42C1305.78,560.65,1303.31,562.24,1294.85,566.31Zm36.92-20.49c-4.67,2.85-8.84,5.22-9.28,5.16-2-.05-49.12-23-49.12-24,0-.22,3.46-2.53,7.69-5.17s12.86-8.46,19.18-12.85l11.53-8.08,7.09,4c3.85,2.2,14.67,7.86,24.07,12.53s17,8.84,17,9.23C1359.9,527.58,1344.46,538,1331.77,545.82ZM1353.36,564c-4.89-1.87-9.45-3.57-10.11-3.79-1.81-.55-1.48-1,2-3.24,1.81-1.1,6-3.85,9.34-6a51.67,51.67,0,0,1,6.54-4c.27,0,.93,4,1.37,8.73s1,9.45,1.21,10.33C1364.35,568.12,1363.75,568,1353.36,564Zm17.26-141.42c-.17.6-.66,2.36-1,3.84-.55,2.2-2.36,4.45-8.62,10.66-4.34,4.34-8.14,8-8.41,8.08-.93.27-29-14-37.14-18.79l-7.75-4.67,6.43-6.54c3.52-3.63,8.74-9.06,11.59-12l5.22-5.44,7.47,4.83c10.11,6.54,16.38,10.28,25.17,14.95C1369.13,420.39,1370.84,421.65,1370.62,422.53Zm10.93-35.44c-1.7,4.62-3.74,10.49-4.51,13s-1.7,4.62-1.92,4.62c-1.92,0-33-18.79-33.07-20a65.23,65.23,0,0,1,5.11-6.75c2.8-3.47,7.52-9.56,10.43-13.52l5.33-7.25,6.93,7.14c3.79,3.9,8.68,8.74,10.82,10.71l4,3.63Zm31.59-65.16c-6,10.05-11.59,20.33-16,29.39-2.91,5.94-5.44,10.77-5.66,10.83-.44.05-14.29-14-16.81-17-1.71-2.09-1.82-2.48-1-3.8,7.3-11.42,20.93-35.6,23.73-42.19.72-1.59,1.43-2.91,1.65-2.91s.93,1.48,1.65,3.29a63.61,63.61,0,0,0,10,15.88l3.73,4.45Z" transform="translate(-34.92 -39.83)"/></g><g id="rim"><path class="cls-5" d="M1510,252v-1.93a17.43,17.43,0,0,0-17.41-17.42l-236.15-.15-236.18-.15a17.41,17.41,0,0,0-17.43,17.41V252a17.42,17.42,0,0,0,17.42,17.42h472.33A17.42,17.42,0,0,0,1510,252Z" transform="translate(-34.92 -39.83)"/><rect class="cls-5" x="995.54" y="222.3" width="40.51" height="15.32" rx="7.66"/><rect class="cls-5" x="1056.56" y="222.3" width="40.51" height="15.32" rx="7.66"/><rect class="cls-5" x="1128.62" y="222.3" width="40.51" height="15.32" rx="7.66"/><rect class="cls-5" x="1200.99" y="222.3" width="40.51" height="15.32" rx="7.66"/><rect class="cls-5" x="1273.42" y="222.3" width="40.51" height="15.32" rx="7.66"/><rect class="cls-5" x="1344.95" y="222.3" width="40.51" height="15.32" rx="7.66"/><rect class="cls-5" x="1401.12" y="222.3" width="40.51" height="15.32" rx="7.66"/></g></svg>